<?xml version="1.0" encoding="iso-8859-1"?>
<!-- Generator: Adobe Illustrator 18.1.1, SVG Export Plug-In . SVG Version: 6.00 Build 0)  -->
<svg xmlns="http://www.w3.org/2000/svg" xmlns:xlink="http://www.w3.org/1999/xlink" version="1.1" id="Capa_1" x="0px" y="0px" viewBox="0 0 20.5 20.5" style="enable-background:new 0 0 20.5 20.5;" xml:space="preserve" width="512px" height="512px">
<g>
	<g>
		<path d="M2.541,5.081h15.419c0.771,0,1.402-0.63,1.402-1.401h-0.001V1.402C19.361,0.631,18.729,0,17.958,0    H2.541C1.77,0,1.139,0.631,1.139,1.402V3.68C1.139,4.451,1.77,5.081,2.541,5.081z" fill="#FFFFFF"/>
		<path d="M19.361,16.82c0-0.771-0.631-1.401-1.402-1.401H2.541c-0.771,0-1.402,0.63-1.402,1.401v2.277    c0,0.772,0.631,1.403,1.402,1.403h15.419c0.771,0,1.402-0.631,1.402-1.402h-0.001V16.82z" fill="#FFFFFF"/>
		<path d="M19.361,9.111c0-0.771-0.631-1.402-1.402-1.402H2.541c-0.771,0-1.402,0.631-1.402,1.402v2.278    c0,0.771,0.631,1.402,1.401,1.402h15.419c0.771,0,1.402-0.631,1.402-1.402H19.36L19.361,9.111L19.361,9.111z" fill="#FFFFFF"/>
	</g>
</g>
<g>
</g>
<g>
</g>
<g>
</g>
<g>
</g>
<g>
</g>
<g>
</g>
<g>
</g>
<g>
</g>
<g>
</g>
<g>
</g>
<g>
</g>
<g>
</g>
<g>
</g>
<g>
</g>
<g>
</g>
</svg>
